<svg width="231" height="258" viewBox="0 0 231 258" fill="none" xmlns="http://www.w3.org/2000/svg">
	<rect width="231" height="258" fill="transparent" />
	<g filter="url(#filter0_d_0_1)">
		<path
			d="M211 114C211 168.46 167.911 212 115.5 212C63.0894 212 20 168.46 20 114C20 59.5398 63.0894 16 115.5 16C167.911 16 211 59.5398 211 114ZM145.761 223.751C192.637 210.268 227 166.237 227 114C227 51.0395 177.08 0 115.5 0C53.9202 0 4 51.0395 4 114C4 166.415 38.5983 210.568 85.7189 223.888C80.9513 224.472 76.3528 225.18 72 226C65.3726 226 60 231.373 60 238C60 244.627 65.3726 250 72 250H159C165.627 250 171 244.627 171 238C171 231.373 165.627 226 159 226C154.745 225.087 150.312 224.341 145.761 223.751Z"
			fill="black" />
	</g>
	<defs>
		<filter id="filter0_d_0_1" x="0" y="0" width="231" height="258" filterUnits="userSpaceOnUse"
			color-interpolation-filters="sRGB">
			<feFlood flood-opacity="0" result="BackgroundImageFix" />
			<feColorMatrix in="SourceAlpha" type="matrix" values="0 0 0 0 0 0 0 0 0 0 0 0 0 0 0 0 0 0 127 0"
				result="hardAlpha" />
			<feOffset dy="4" />
			<feGaussianBlur stdDeviation="2" />
			<feComposite in2="hardAlpha" operator="out" />
			<feColorMatrix type="matrix" values="0 0 0 0 0 0 0 0 0 0 0 0 0 0 0 0 0 0 0.25 0" />
			<feBlend mode="normal" in2="BackgroundImageFix" result="effect1_dropShadow_0_1" />
			<feBlend mode="normal" in="SourceGraphic" in2="effect1_dropShadow_0_1" result="shape" />
		</filter>
	</defs>
</svg>